<?xml version="1.0" standalone="no"?><!DOCTYPE svg PUBLIC "-//W3C//DTD SVG 1.1//EN" "http://www.w3.org/Graphics/SVG/1.1/DTD/svg11.dtd"><svg t="1635176353789" class="icon" viewBox="0 0 1030 1024" version="1.1" xmlns="http://www.w3.org/2000/svg" p-id="9710" xmlns:xlink="http://www.w3.org/1999/xlink" width="201.171875" height="200"><defs><style type="text/css"></style></defs><path d="M660.535328 881.848712h-297.921862a278.34414 278.34414 0 0 1 0-556.68828h297.921862a278.34414 278.34414 0 0 1 0 556.68828z m-297.921862-514.128014a235.783874 235.783874 0 0 0 0 471.567748h297.921862a235.783874 235.783874 0 0 0 0-471.567748z" p-id="9711"></path><path d="M360.911056 367.720698a20.003325 20.003325 0 0 1-14.896093-6.38404L165.559435 180.881131a20.85453 20.85453 0 0 1 29.792186-29.792187l180.455528 180.029925a21.280133 21.280133 0 0 1 0 30.217789 20.003325 20.003325 0 0 1-14.896093 6.38404zM347.717373 669.898587a21.280133 21.280133 0 0 1-21.280133-21.280133v-90.227764a21.280133 21.280133 0 0 1 21.280133-21.280133 21.280133 21.280133 0 0 1 21.280133 21.280133v90.227764a21.280133 21.280133 0 0 1-21.280133 21.280133zM691.17872 669.898587a21.280133 21.280133 0 0 1-21.280133-21.280133v-90.227764a21.280133 21.280133 0 0 1 42.560266 0v90.227764a21.280133 21.280133 0 0 1-21.280133 21.280133zM691.17872 367.720698a20.003325 20.003325 0 0 1-14.896093-6.38404 21.280133 21.280133 0 0 1 0-30.217789l180.455528-180.029925a20.85453 20.85453 0 0 1 29.792186 29.792187l-180.455528 180.455527a20.003325 20.003325 0 0 1-14.896093 6.38404z" p-id="9712"></path></svg>